<svg width="1080" height="1080" viewBox="0 0 1080 1080" fill="none" xmlns="http://www.w3.org/2000/svg">
<path d="M189.615 429.273C221.254 517.288 931.961 505.597 915.192 429.273C911.189 411.055 879.735 396.908 831.976 386.583C701.808 358.442 450.519 358.69 303.784 382.261C236.096 393.135 190.656 408.971 189.615 429.273Z" fill="#363942"/>
<path d="M915.192 429.273C931.961 505.597 221.254 517.288 189.615 429.273C190.656 408.971 236.096 393.135 303.784 382.261C213.928 393.734 174.204 413.652 173.694 428.579C173.709 428.993 173.726 429.408 173.744 429.824C174.003 432.074 175.18 434.196 177.238 436.144C191.506 449.647 218.297 461.082 253.578 470.414C389.819 506.45 652.67 511.136 809.968 482.586C869.151 471.844 913.392 456.396 930.324 436.144C936.056 426.484 924.41 403.048 831.976 386.583C879.735 396.908 911.189 411.055 915.192 429.273Z" fill="#6C7184"/>
<path d="M809.968 482.586C652.67 511.136 389.819 506.45 253.578 470.414C281.522 540.593 403.924 672.562 669.975 639.004C727.678 603.089 772.406 551.593 809.968 482.586Z" fill="#4E525E"/>
<path d="M253.578 470.414C218.297 461.082 191.506 449.647 177.238 436.144C175.18 434.196 174.003 432.074 173.744 429.824C174.208 440.606 175.621 452.462 178.14 465.025L225.38 484.28C276.362 597.614 325.786 642.828 506.949 695.769C571.197 685.856 624.598 667.247 669.975 639.004C403.924 672.562 281.522 540.593 253.578 470.414Z" fill="#484A56"/>
<path d="M428.266 703.381C459.51 710.253 494.249 714.261 532.805 714.647C546.557 714.785 559.849 714.522 572.694 713.883C549.016 707.679 527.162 701.676 506.949 695.769C325.786 642.828 276.362 597.614 225.38 484.28L178.14 465.025C178.701 467.824 179.316 470.657 179.989 473.522C180.295 474.829 180.6 476.122 180.904 477.403C181.74 480.921 182.572 484.349 183.43 487.718C184.181 490.667 184.953 493.57 185.765 496.449C189.312 509.027 193.631 521.135 200.394 534.479C229.832 531.413 240.378 527.249 248.077 535.165C249.012 536.126 249.919 537.265 250.828 538.605C253.038 541.861 253.936 544.578 253.83 546.857C253.309 558.06 228.516 558.682 215.753 560.577C257.856 625.077 314.372 675.826 428.266 703.381Z" fill="#5C5F70"/>
<path d="M890.236 537.918C887.939 537.658 885.933 536.649 884.331 535.167C882.845 536.932 881.176 539.254 879.275 542.044C854.525 578.379 790.639 694.213 583.698 696.768C635.531 679.658 679.762 657.54 715.746 632.995C701.991 634.789 679.501 637.749 669.975 639.004C624.598 667.247 571.197 685.856 506.949 695.769C527.162 701.676 549.016 707.679 572.694 713.883C748.611 705.136 840.944 625.836 890.236 537.918Z" fill="#5A5C6B"/>
<path d="M715.746 632.995C679.762 657.54 635.531 679.658 583.698 696.768C790.639 694.213 854.525 578.379 879.275 542.044C830.733 585.504 729.501 631.201 715.746 632.995Z" fill="#6C6F80"/>
<path d="M884.331 535.167C877.53 528.874 878.038 514.056 894.646 511.932C907.284 496.067 922.914 467.088 884.331 478.091C862.053 484.444 847.13 488.504 837.833 490.934C830.57 492.832 824.991 498.773 822.841 505.965C810.453 547.399 773.85 593.362 715.746 632.995C729.501 631.201 830.733 585.504 879.275 542.044C881.176 539.254 882.845 536.932 884.331 535.167Z" fill="#6E7386"/>
<path d="M926.544 449.897C927.886 445.276 929.144 440.688 930.324 436.144C913.392 456.396 869.151 471.844 809.968 482.586C772.406 551.593 727.678 603.089 669.975 639.004C679.501 637.749 701.991 634.789 715.746 632.995C773.85 593.362 810.453 547.399 822.841 505.965C824.991 498.773 830.57 492.832 837.833 490.934C847.13 488.504 862.053 484.444 884.331 478.091C922.914 467.088 907.284 496.067 894.646 511.932C897.205 511.605 900.146 511.579 903.502 511.932C909.479 499.038 914.636 486.09 919.096 473.277C921.507 466.351 923.714 459.465 925.737 452.647C926.009 451.729 926.279 450.812 926.544 449.897Z" fill="#616473"/>
<path d="M919.096 473.277C1026.61 487.031 924.134 514.103 903.502 511.932C900.146 511.579 897.205 511.605 894.646 511.932C878.038 514.056 877.53 528.874 884.331 535.167C885.933 536.649 887.939 537.658 890.236 537.918C908.22 539.951 944.371 539.242 969.526 524.759C1017.94 478.474 960.507 457.399 925.737 452.647C923.714 459.465 921.507 466.351 919.096 473.277Z" fill="#4E525E"/>
<path d="M985.344 511.786C1016.16 467.226 958.982 451.96 926.544 449.897C926.279 450.812 926.009 451.729 925.737 452.647C960.507 457.399 1017.94 478.474 969.526 524.759C975.568 521.28 980.975 517.007 985.344 511.786Z" fill="#868895"/>
<path d="M210.939 553.046C129.6 562.288 75.9012 526.195 94.9165 499.509C53.1357 552.381 152.988 570.732 215.753 560.577C228.516 558.682 253.309 558.06 253.83 546.857C241.376 549.058 220.047 551.9 210.939 553.046Z" fill="#363942"/>
<path d="M180.904 477.403C163.406 478.181 122.219 483.08 97.4601 496.449C96.56 497.482 95.7125 498.502 94.9165 499.509C75.9012 526.195 129.6 562.288 210.939 553.046C220.047 551.9 241.376 549.058 253.83 546.857C253.936 544.578 253.038 541.861 250.828 538.605C249.919 537.265 249.012 536.126 248.077 535.165C190.857 551.116 109.152 542.731 111.502 520.726C109.377 510.388 134.935 496.788 183.43 487.718C182.572 484.349 181.74 480.921 180.904 477.403Z" fill="#4E525E"/>
<path d="M179.989 473.522C134.716 475.525 108.57 484.823 97.4601 496.449C122.219 483.08 163.406 478.181 180.904 477.403C180.6 476.122 180.295 474.829 179.989 473.522Z" fill="#8C929E"/>
<path d="M185.765 496.449C184.953 493.57 184.181 490.667 183.43 487.718C134.935 496.788 109.377 510.388 111.502 520.726C128.237 503.672 167.984 497.436 185.765 496.449Z" fill="#363942"/>
<path d="M200.394 534.479C141.747 537.732 113.566 530.768 111.502 520.726C109.152 542.731 190.857 551.116 248.077 535.165C240.378 527.249 229.832 531.413 200.394 534.479Z" fill="#8C929E"/>
<path d="M930.324 436.144C936.056 426.484 924.41 403.048 831.976 386.583C701.808 358.442 450.519 358.69 303.784 382.261C213.928 393.734 174.204 413.652 173.694 428.579M930.324 436.144C929.144 440.688 927.886 445.276 926.544 449.897M930.324 436.144C913.392 456.396 869.151 471.844 809.968 482.586C652.67 511.136 389.819 506.45 253.578 470.414C218.297 461.082 191.506 449.647 177.238 436.144C175.181 434.196 174.003 432.074 173.744 429.824M173.694 428.579C173.709 428.993 173.726 429.408 173.744 429.824M173.694 428.579C173.68 428.998 173.697 429.413 173.744 429.824M926.544 449.897C958.982 451.96 1016.16 467.226 985.344 511.786C980.975 517.007 975.568 521.28 969.526 524.759C944.371 539.242 908.22 539.951 890.236 537.918M926.544 449.897C926.279 450.812 926.009 451.729 925.737 452.647C923.714 459.465 921.507 466.351 919.096 473.277M890.236 537.918C887.939 537.658 885.933 536.649 884.331 535.167C877.53 528.874 878.038 514.056 894.646 511.932C897.205 511.605 900.146 511.579 903.502 511.932M890.236 537.918C840.944 625.836 748.611 705.136 572.694 713.883C559.849 714.522 546.557 714.785 532.805 714.647C494.249 714.261 459.51 710.253 428.266 703.382C314.372 675.826 257.856 625.077 215.753 560.577M903.502 511.932C909.479 499.038 914.636 486.09 919.096 473.277M903.502 511.932C924.134 514.103 1026.61 487.031 919.096 473.277M179.989 473.522C179.316 470.657 178.701 467.824 178.14 465.025C175.621 452.462 174.208 440.606 173.744 429.824M179.989 473.522C134.716 475.525 108.57 484.823 97.4601 496.449M179.989 473.522C180.295 474.829 180.6 476.122 180.904 477.403C181.74 480.921 183.525 487.7 184.383 491.07M97.4601 496.449C96.56 497.482 95.7125 498.502 94.9165 499.509M97.4601 496.449C96.501 497.453 95.6541 498.474 94.9165 499.509M215.753 560.577C228.516 558.682 253.309 558.06 253.83 546.857C253.936 544.578 253.038 541.861 250.828 538.605C249.919 537.265 249.012 536.126 248.077 535.165C240.378 527.249 229.832 531.413 200.394 534.479M215.753 560.577C152.988 570.732 53.1357 552.381 94.9165 499.509M184.383 491.07C185.135 494.018 184.953 493.57 185.765 496.449C189.312 509.027 193.631 521.135 200.394 534.479M184.383 491.07C135.888 500.14 109.377 510.388 111.502 520.726C113.566 530.768 141.747 537.732 200.394 534.479" stroke="black" stroke-width="5.5213"/>
</svg>
