<svg width="1440" height="185" viewBox="0 0 1440 185" fill="none" xmlns="http://www.w3.org/2000/svg">
<path d="M76 150.132C30.9746 213.281 -14.7606 176.444 -32 150.132V0H76V150.132Z" fill="#EE0700"/>
<path d="M184 150.132C138.975 213.281 93.2394 176.444 76 150.132V0H184V150.132Z" fill="#EE0700"/>
<path d="M292 150.132C246.975 213.281 201.239 176.444 184 150.132V0H292V150.132Z" fill="#EE0700"/>
<path d="M400 150.132C354.975 213.281 309.239 176.444 292 150.132V0H400V150.132Z" fill="#EE0700"/>
<path d="M508 150.132C462.975 213.281 417.239 176.444 400 150.132V0H508V150.132Z" fill="#EE0700"/>
<path d="M616 150.132C570.975 213.281 525.239 176.444 508 150.132V0H616V150.132Z" fill="#EE0700"/>
<path d="M724 150.132C678.975 213.281 633.239 176.444 616 150.132V0H724V150.132Z" fill="#EE0700"/>
<path d="M828 150.132C782.975 213.281 737.239 176.444 720 150.132V0H828V150.132Z" fill="#EE0700"/>
<path d="M936 150.132C890.975 213.281 845.239 176.444 828 150.132V0H936V150.132Z" fill="#EE0700"/>
<path d="M1044 150.132C998.975 213.281 953.239 176.444 936 150.132V0H1044V150.132Z" fill="#EE0700"/>
<path d="M1152 150.132C1106.97 213.281 1061.24 176.444 1044 150.132V0H1152V150.132Z" fill="#EE0700"/>
<path d="M1260 150.132C1214.97 213.281 1169.24 176.444 1152 150.132V0H1260V150.132Z" fill="#EE0700"/>
<path d="M1368 150.132C1322.97 213.281 1277.24 176.444 1260 150.132V0H1368V150.132Z" fill="#EE0700"/>
<path d="M1476 150.132C1430.97 213.281 1385.24 176.444 1368 150.132V0H1476V150.132Z" fill="#EE0700"/>
</svg>
