<svg width="193" height="157" viewBox="0 0 193 157" fill="none" xmlns="http://www.w3.org/2000/svg">
<path d="M65.734 19.1072L60.2385 25.2896L54.0562 21.626C52.6823 23.2288 42.8363 27.3504 41.0045 17.7334C40.0886 9.49025 47.3395 11.8563 49.9346 14.0698C51.229 15.1738 53.3234 13.7034 52.2244 12.2379C46.042 5.36865 49.9346 0.560151 56.5749 2.39196C61.8872 3.85741 61.6887 11.3984 60.9255 14.9857L65.734 19.1072Z" fill="#D9D9D9" stroke="black" stroke-width="2.28976"/>
<path d="M26.8089 46.1268L21.3135 52.3091L15.1311 48.6455C13.7573 50.2484 3.91128 54.3699 2.07947 44.7529C1.16353 36.5098 8.41448 38.8759 11.0095 41.0893C12.3039 42.1933 14.3984 40.7229 13.2993 39.2575C7.11697 32.3882 11.0096 27.5797 17.6499 29.4115C22.9621 30.8769 22.7637 38.4179 22.0004 42.0052L26.8089 46.1268Z" fill="#D9D9D9" stroke="black" stroke-width="2.28976"/>
<path d="M65.8865 18.2578L59.9331 25.814C64.6958 28.5617 67.5657 34.4388 68.4053 37.0339C62.1771 39.232 55.1246 44.6664 52.3769 47.1088C50.5451 46.0097 44.1338 46.6509 41.1571 47.1088C34.3794 48.7575 27.6475 46.4219 25.1287 45.048L21.6941 52.6043C31.2195 59.9315 33.2956 69.5485 33.1429 73.4411C32.5934 80.402 32.9139 87.9429 33.1429 90.8433C36.0738 111.543 85.6548 111.222 110.079 108.474C137.556 107.375 141.22 84.6609 139.617 73.4411C135.587 50.3603 118.322 37.0339 105.728 34.2862C100.462 25.814 93.9132 22.013 84.2046 22.3794C74.496 22.7457 67.9473 19.7843 65.8865 18.2578Z" fill="#FF5C00" stroke="black" stroke-width="2.28976"/>
<path d="M93.5889 41.8398C106.183 42.5268 131.416 52.8307 131.599 88.551" stroke="black" stroke-width="2.28976" stroke-linecap="round"/>
<path d="M34.0566 72.2969C39.5521 80.54 54.8477 92.7216 72.0667 75.5025" stroke="black" stroke-width="2.28976" stroke-linecap="round"/>
<path d="M116.799 41.8035L111.304 47.9859L105.121 44.3223C103.747 45.9251 93.9015 50.0467 92.0697 40.4297C91.1538 32.1865 98.4047 34.5526 101 36.7661C102.294 37.8701 104.389 36.3997 103.29 34.9342C97.1072 28.0649 101 23.2564 107.64 25.0883C112.952 26.5537 112.754 34.0947 111.991 37.6819L116.799 41.8035Z" fill="#D9D9D9" stroke="black" stroke-width="2.28976"/>
<path d="M77.8744 68.8231L72.3789 75.0054L66.1965 71.3418C64.8227 72.9447 54.9767 77.0662 53.1449 67.4492C52.229 59.2061 59.4799 61.5722 62.075 63.7856C63.3694 64.8896 65.4638 63.4192 64.3648 61.9538C58.1824 55.0845 62.075 50.276 68.7153 52.1078C74.0276 53.5732 73.8291 61.1142 73.0659 64.7015L77.8744 68.8231Z" fill="#D9D9D9" stroke="black" stroke-width="2.28976"/>
<path d="M116.952 40.9536L110.999 48.5098C115.761 51.2575 118.631 57.1346 119.471 59.7297C113.243 61.9278 106.19 67.3622 103.442 69.8046C101.611 68.7055 95.1992 69.3467 92.2225 69.8046C85.4448 71.4533 78.7129 69.1177 76.1942 67.7438L72.7595 75.3001C82.2849 82.6273 84.361 92.2443 84.2083 96.1369C83.6588 103.098 83.9794 110.639 84.2083 113.539C87.1392 134.239 136.72 133.918 161.144 131.17C188.622 130.071 192.285 107.357 190.682 96.1369C186.652 73.0561 169.388 59.7297 156.794 56.982C151.527 48.5098 144.979 44.7088 135.27 45.0752C125.561 45.4415 119.013 42.4801 116.952 40.9536Z" fill="#FF5C00" stroke="black" stroke-width="2.28976"/>
<path d="M144.654 64.5361C157.248 65.2231 182.481 75.527 182.664 111.247" stroke="black" stroke-width="2.28976" stroke-linecap="round"/>
<path d="M85.1218 94.9932C90.6173 103.236 105.913 115.418 123.132 98.1988" stroke="black" stroke-width="2.28976" stroke-linecap="round"/>
<path d="M75.6632 64.4983L70.1677 70.6807L63.9854 67.0171C62.6115 68.6199 52.7655 72.7415 50.9337 63.1245C50.0178 54.8814 57.2687 57.2475 59.8638 59.4609C61.1582 60.5649 63.2526 59.0945 62.1536 57.6291C55.9712 50.7598 59.8638 45.9513 66.5041 47.7831C71.8164 49.2485 71.6179 56.7895 70.8547 60.3768L75.6632 64.4983Z" fill="#D9D9D9" stroke="black" stroke-width="2.28976"/>
<path d="M36.7381 91.5179L31.2427 97.7002L25.0603 94.0366C23.6865 95.6395 13.8405 99.761 12.0087 90.144C11.0927 81.9009 18.3437 84.267 20.9387 86.4804C22.2331 87.5845 24.3276 86.1141 23.2285 84.6486C17.0462 77.7793 20.9388 72.9708 27.5791 74.8026C32.8913 76.2681 32.6929 83.809 31.9296 87.3963L36.7381 91.5179Z" fill="#D9D9D9" stroke="black" stroke-width="2.28976"/>
<path d="M75.816 63.6489L69.8626 71.2051C74.6253 73.9529 77.4951 79.8299 78.3347 82.425C72.1065 84.6232 65.0541 90.0575 62.3064 92.4999C60.4746 91.4009 54.0632 92.042 51.0865 92.4999C44.3088 94.1486 37.5769 91.813 35.0582 90.4392L31.6235 97.9954C41.1489 105.323 43.225 114.94 43.0723 118.832C42.5228 125.793 42.8434 133.334 43.0723 136.234C46.0032 156.934 95.5842 156.613 120.008 153.866C147.486 152.767 151.149 130.052 149.546 118.832C145.516 95.7514 128.252 82.425 115.658 79.6773C110.391 71.2051 103.843 67.4041 94.1341 67.7705C84.4255 68.1369 77.8767 65.1754 75.816 63.6489Z" fill="#FF5C00" stroke="black" stroke-width="2.28976"/>
<path d="M103.518 87.231C116.112 87.9179 141.345 98.2218 141.528 133.942" stroke="black" stroke-width="2.28976" stroke-linecap="round"/>
<path d="M43.9858 117.688C49.4813 125.931 64.7769 138.113 81.9959 120.894" stroke="black" stroke-width="2.28976" stroke-linecap="round"/>
</svg>
