<svg width="1080" height="1080" viewBox="0 0 1080 1080" fill="none" xmlns="http://www.w3.org/2000/svg">
<path d="M411.714 293.054L388.889 318.732L363.211 303.515C357.504 310.173 316.61 327.291 309.001 287.348C305.197 253.11 335.314 262.938 346.092 272.131C351.468 276.717 360.167 270.609 355.602 264.523C329.924 235.991 346.092 216.02 373.672 223.628C395.736 229.715 394.912 261.036 391.742 275.935L411.714 293.054Z" fill="#D9D9D9" stroke="black" stroke-width="9.51039"/>
<path d="M250.042 405.278L227.217 430.956L201.539 415.74C195.833 422.397 154.938 439.516 147.33 399.572C143.526 365.334 173.642 375.162 184.421 384.355C189.797 388.941 198.496 382.834 193.931 376.747C168.253 348.216 184.421 328.244 212.001 335.852C234.065 341.939 233.241 373.26 230.071 388.159L250.042 405.278Z" fill="#D9D9D9" stroke="black" stroke-width="9.51039"/>
<path d="M412.35 289.526L387.623 320.91C407.404 332.322 419.324 356.732 422.811 367.511C396.943 376.641 367.651 399.212 356.239 409.356C348.63 404.791 322.001 407.454 309.638 409.356C281.487 416.204 253.526 406.503 243.065 400.797L228.799 432.181C268.363 462.615 276.985 502.558 276.351 518.726C274.069 547.637 275.4 578.958 276.351 591.005C288.525 676.979 494.456 675.647 595.9 664.235C710.025 659.67 725.242 565.327 718.584 518.726C701.846 422.861 630.138 367.511 577.831 356.098C555.957 320.91 528.757 305.123 488.433 306.644C448.109 308.166 420.909 295.866 412.35 289.526Z" fill="#FF5C00" stroke="black" stroke-width="9.51039"/>
<path d="M527.409 387.472C579.716 390.326 684.52 433.122 685.281 581.484" stroke="black" stroke-width="9.51039" stroke-linecap="round"/>
<path d="M280.146 513.974C302.97 548.211 366.5 598.806 438.018 527.288" stroke="black" stroke-width="9.51039" stroke-linecap="round"/>
<path d="M623.811 387.321L600.986 412.999L575.308 397.782C569.602 404.439 528.707 421.558 521.099 381.614C517.294 347.377 547.411 357.204 558.189 366.398C563.565 370.983 572.265 364.876 567.7 358.789C542.022 330.258 558.189 310.286 585.769 317.895C607.833 323.981 607.009 355.302 603.839 370.202L623.811 387.321Z" fill="#D9D9D9" stroke="black" stroke-width="9.51039"/>
<path d="M462.14 499.545L439.315 525.223L413.636 510.006C407.93 516.664 367.036 533.782 359.427 493.839C355.623 459.601 385.739 469.429 396.518 478.622C401.894 483.208 410.593 477.1 406.028 471.014C380.35 442.482 396.518 422.511 424.098 430.119C446.162 436.206 445.338 467.526 442.168 482.426L462.14 499.545Z" fill="#D9D9D9" stroke="black" stroke-width="9.51039"/>
<path d="M624.445 383.792L599.718 415.177C619.5 426.589 631.419 450.999 634.906 461.777C609.038 470.907 579.746 493.479 568.334 503.623C560.725 499.058 534.096 501.721 521.733 503.623C493.582 510.471 465.622 500.77 455.16 495.064L440.895 526.448C480.458 556.881 489.08 596.825 488.446 612.993C486.164 641.904 487.495 673.225 488.446 685.272C500.62 771.246 706.551 769.914 807.996 758.502C922.12 753.937 937.337 659.594 930.68 612.993C913.941 517.128 842.233 461.777 789.926 450.365C768.052 415.177 740.852 399.389 700.528 400.911C660.204 402.433 633.004 390.133 624.445 383.792Z" fill="#FF5C00" stroke="black" stroke-width="9.51039"/>
<path d="M739.506 481.739C791.813 484.592 896.617 527.389 897.378 675.751" stroke="black" stroke-width="9.51039" stroke-linecap="round"/>
<path d="M492.243 608.241C515.068 642.478 578.597 693.073 650.115 621.555" stroke="black" stroke-width="9.51039" stroke-linecap="round"/>
<path d="M452.956 481.583L430.131 507.261L404.453 492.045C398.747 498.702 357.852 515.821 350.244 475.877C346.44 441.64 376.556 451.467 387.335 460.66C392.711 465.246 401.41 459.139 396.845 453.052C371.167 424.521 387.335 404.549 414.915 412.157C436.979 418.244 436.155 449.565 432.985 464.465L452.956 481.583Z" fill="#D9D9D9" stroke="black" stroke-width="9.51039"/>
<path d="M291.283 593.807L268.458 619.485L242.78 604.269C237.073 610.926 196.179 628.045 188.57 588.101C184.766 553.864 214.882 563.691 225.661 572.885C231.037 577.47 239.736 571.363 235.171 565.276C209.493 536.745 225.661 516.773 253.241 524.382C275.305 530.468 274.481 561.789 271.311 576.689L291.283 593.807Z" fill="#D9D9D9" stroke="black" stroke-width="9.51039"/>
<path d="M453.59 478.055L428.863 509.439C448.645 520.852 460.564 545.262 464.051 556.04C438.183 565.17 408.891 587.741 397.479 597.886C389.87 593.321 363.241 595.984 350.878 597.886C322.727 604.733 294.767 595.033 284.305 589.327L270.04 620.711C309.603 651.144 318.226 691.088 317.591 707.255C315.309 736.167 316.64 767.488 317.591 779.534C329.765 865.508 535.696 864.177 637.141 852.764C751.265 848.199 766.482 753.856 759.825 707.255C743.086 611.391 671.378 556.04 619.071 544.628C597.197 509.439 569.997 493.652 529.673 495.174C489.349 496.695 462.149 484.395 453.59 478.055Z" fill="#FF5C00" stroke="black" stroke-width="9.51039"/>
<path d="M568.649 576.002C620.956 578.855 725.761 621.652 726.521 770.014" stroke="black" stroke-width="9.51039" stroke-linecap="round"/>
<path d="M321.386 702.503C344.211 736.741 407.74 787.336 479.258 715.818" stroke="black" stroke-width="9.51039" stroke-linecap="round"/>
</svg>
