<svg width="390" height="324" viewBox="0 0 390 324" fill="none" xmlns="http://www.w3.org/2000/svg">
<path d="M122.691 143.652C124.003 152.837 117.88 154.587 118.754 180.393C119.483 184.476 124.091 192.99 136.688 194.39C168.53 198.589 217.606 209.845 238.164 214.947C259.859 223.695 274.905 216.26 278.842 210.574C279.757 209.251 283.256 202.963 282.341 177.769C282.134 169.714 279.408 163.924 275.29 159.836C270.484 155.065 263.781 152.611 256.972 151.576C249.843 150.492 242.598 150.964 237.289 151.962C207.109 142.34 196.319 145.839 189.175 143.652C164.244 135.779 150.83 135.195 148.497 133.154C146.748 131.842 140.799 129.48 131.002 130.53C121.204 131.58 121.379 139.715 122.691 143.652Z" fill="#F5F5F3"/>
<path d="M154.621 56.6098C140.478 77.6048 112.019 126.243 111.319 152.837C111.34 153.427 111.365 154.01 111.392 154.587C113.2 143.039 121.719 134.029 125.753 130.967C134.151 122.569 179.115 137.528 238.164 141.465C282.295 144.407 268.661 137.966 270.094 129.655C271.843 119.507 279.91 100.349 281.903 87.2276C287.152 52.6732 293.276 53.548 300.274 16.3693C288.902 -9.43663 277.967 5.4347 253.473 8.49613C246.62 10.3917 223.03 13.4829 183.489 10.6836C164.244 9.32105 163.165 43.9257 154.621 56.6098Z" fill="#0F703A"/>
<path d="M14.2166 184.11C15.7289 182.683 18.2016 181.39 22.0898 180.393C32.1498 175.582 85.9449 194.39 120.811 191.328C116.223 184.548 112.275 173.102 111.392 154.587C111.365 154.01 111.34 153.427 111.319 152.837C112.019 126.243 140.478 77.6048 154.621 56.6098C130.564 63.6081 83.7627 59.6526 73.2652 60.109C57.1689 60.8088 48.4479 99.4747 41.7726 113.471C20.0777 158.961 7.7366 165.084 2.13457 207.512C3.78704 194.997 10.3872 186.953 14.2166 184.11Z" fill="#0F703A"/>
<path d="M251.723 221.508C245.745 219.759 225.654 214.51 193.112 207.512C191.173 207.095 189.278 206.7 187.426 206.325C184.51 210.05 177.453 222.843 172.554 244.217C172.35 245.404 172.134 246.577 171.922 247.735L171.919 247.753C178.409 234.106 186.127 230.986 189.175 231.132C189.617 231.164 190.054 231.196 190.488 231.226C192.937 231.399 195.267 231.537 197.486 231.652C215.905 232.606 226.729 231.964 235.539 235.943C246.387 240.842 302.461 238.957 316.458 244.217C335.003 251.186 329.482 217.135 337.453 199.202C343.052 186.605 357.136 140.59 358.448 116.096C351.887 91.602 332.642 104.724 310.927 109.973C300.366 143.915 298.642 166.724 293.276 186.079C283.478 221.421 267.032 225.989 251.723 221.508Z" fill="#0F703A"/>
<path d="M170.367 259.999C170.367 260.027 170.366 260.056 170.364 260.085C170.307 261.82 170.342 263.95 170.367 264.811C170.076 278.662 179.64 305.489 220.23 301.99C234.577 300.94 275.197 311.758 293.713 317.299C323.019 326.067 330.804 325.259 344.451 308.113C356.698 290.18 364.134 230.694 372.007 207.512C377.11 196.431 387.491 169.808 388.191 151.962C388.797 136.509 383.962 128.673 377.693 124.143C381.193 129.531 364.134 177.769 351.887 211.449C346.252 226.944 355.386 257.375 333.954 259.565C346.286 272.657 344.284 302.226 337.015 312.487C326.081 329.109 270.531 307.861 267.032 307.239C249.828 304.177 214.894 298.053 212.795 298.053C190.75 298.053 181.156 286.098 179.115 280.12C176.407 270.322 178.678 256.391 180.865 254.751C182.614 253.439 185.239 249.24 181.74 242.941C178.24 236.643 186.114 232.507 190.488 231.226C190.054 231.196 189.617 231.164 189.175 231.132C186.127 230.986 178.409 234.106 171.919 247.753C171.122 252.094 170.367 256.217 170.367 259.999Z" fill="#175128"/>
<path d="M333.079 258.688C333.378 258.971 333.67 259.264 333.954 259.565C355.386 257.375 346.252 226.944 351.887 211.449C364.134 177.769 381.193 129.531 377.693 124.143C374.669 121.958 371.312 120.542 368.071 119.412C361.51 125.282 348.825 162.46 348.825 185.205C348.825 196.14 331.329 210.574 338.328 242.941C339.057 246.539 335.091 253.53 313.396 252.712C323.219 253.583 328.69 254.53 333.079 258.688Z" fill="#11713B"/>
<path d="M358.448 116.096C357.136 140.59 343.052 186.605 337.453 199.202C329.482 217.135 335.003 251.186 316.458 244.217C302.461 238.957 246.387 240.842 235.539 235.943C226.729 231.964 215.905 232.606 197.486 231.652C204.834 233.817 233.207 240.08 246.474 242.941C280.748 250.585 300.704 251.586 313.396 252.712C335.091 253.53 339.057 246.539 338.328 242.941C331.329 210.574 348.825 196.14 348.825 185.205C348.825 162.46 361.51 125.282 368.071 119.412C364.529 118.177 361.125 117.282 358.448 116.096Z" fill="#144C24"/>
<path d="M193.112 207.512C225.654 214.51 245.745 219.759 251.723 221.508C267.032 225.989 283.478 221.421 293.276 186.079C298.642 166.724 300.366 143.915 310.927 109.973C314.924 97.1263 320.187 82.6851 327.393 66.2325C330.373 59.4273 330.451 38.0091 319.72 25.5551C316.732 34.6529 302.595 78.9175 295.9 99.9125C285.403 124.143 295.9 155.899 275.29 159.836C279.408 163.924 282.134 169.714 282.341 177.769C283.256 202.963 279.757 209.251 278.842 210.574C274.905 216.26 259.859 223.695 238.164 214.947C217.606 209.845 168.53 198.589 136.688 194.39C124.091 192.99 119.483 184.476 118.754 180.393C117.88 154.587 124.003 152.837 122.691 143.652C121.379 139.715 121.204 131.58 131.002 130.53C140.799 129.48 146.748 131.842 148.497 133.154C150.83 135.195 164.244 135.779 189.175 143.652C196.319 145.839 207.109 142.34 237.289 151.962C242.598 150.964 249.843 150.492 256.972 151.576C279.367 153.237 280.883 145.527 278.842 141.465C270.094 119.158 291.089 85.4784 291.089 79.3549C291.089 66.2325 300.274 25.5551 309.145 18.1193C306.513 17.1376 303.566 16.5242 300.274 16.3693C293.276 53.548 287.152 52.6732 281.903 87.2276C279.91 100.349 271.843 119.507 270.094 129.655C268.661 137.966 282.295 144.407 238.164 141.465C179.115 137.528 134.151 122.569 125.753 130.967C121.719 134.029 113.2 143.039 111.392 154.587C112.275 173.102 116.223 184.548 120.811 191.328C125.395 198.103 130.619 200.22 134.063 200.076C139.822 199.665 158.192 200.414 187.426 206.325C189.278 206.7 191.173 207.095 193.112 207.512Z" fill="#144C24"/>
<path d="M275.29 159.836C295.9 155.899 285.403 124.143 295.9 99.9125C302.595 78.9175 316.732 34.6529 319.72 25.5551C316.957 22.3477 313.477 19.7349 309.145 18.1193C300.274 25.5551 291.089 66.2325 291.089 79.3549C291.089 85.4784 270.094 119.158 278.842 141.465C280.883 145.527 279.367 153.237 256.972 151.576C263.781 152.611 270.484 155.065 275.29 159.836Z" fill="#11713B"/>
<path d="M22.0898 180.393C26.1721 179.518 35.6491 182.58 50.5206 186.079C58.5395 188.558 78.7764 193.952 95.5724 195.702C112.368 197.452 124.732 201.097 128.815 202.7C130.564 203.284 137.825 204.188 152.871 203.138C164.069 202.788 170.659 216.405 172.554 223.258C174.525 230.384 173.71 237.511 172.554 244.217C177.453 222.843 184.51 210.05 187.426 206.325C158.192 200.414 139.822 199.665 134.063 200.076C130.619 200.22 125.395 198.103 120.811 191.328C85.9449 194.39 32.1498 175.582 22.0898 180.393Z" fill="#144C24"/>
<path d="M61.8929 250.377C29.0881 245.565 4.15655 243.553 9.40532 218.009C10.1243 214.51 10.3675 205.412 14.2166 197.014C14.9905 195.326 9.09416 188.944 14.2166 184.11C10.3872 186.953 3.78704 194.997 2.13457 207.512C1.71083 210.721 1.61243 214.224 1.96951 218.009C3.7191 236.555 14.3624 244.69 19.4653 246.44C42.6474 254.388 50.5206 248.729 75.8895 256.063C92.948 260.994 117.442 264.811 143.686 270.934C147.914 271.663 159.17 271.459 170.367 264.811C170.342 263.95 170.307 261.82 170.364 260.085C170.095 264.11 151.141 276.083 117.442 262.186C103.154 258.541 72.0406 251.076 61.8929 250.377Z" fill="#144C24"/>
<path d="M9.40532 218.009C4.15655 243.553 29.0881 245.565 61.8929 250.377C72.0406 251.076 103.154 258.541 117.442 262.186C151.141 276.083 170.095 264.11 170.364 260.085L170.367 259.999C170.367 256.217 171.122 252.094 171.919 247.753L171.922 247.735C172.134 246.577 172.35 245.404 172.554 244.217C173.71 237.511 174.525 230.384 172.554 223.258C170.659 216.405 164.069 202.788 152.871 203.138C137.825 204.188 130.564 203.284 128.815 202.7C124.732 201.097 112.368 197.452 95.5724 195.702C78.7764 193.952 58.5395 188.558 50.5206 186.079C35.6491 182.58 26.1721 179.518 22.0898 180.393C18.2016 181.39 15.7289 182.683 14.2166 184.11C9.09416 188.944 14.9905 195.326 14.2166 197.014C10.3675 205.412 10.1243 214.51 9.40532 218.009Z" fill="#F5F5F3"/>
<path d="M190.488 231.226C186.114 232.507 178.24 236.643 181.74 242.941C185.239 249.24 182.614 253.439 180.865 254.751C178.678 256.391 176.407 270.322 179.115 280.12C181.156 286.098 190.75 298.053 212.795 298.053C214.894 298.053 249.828 304.177 267.032 307.239C270.531 307.861 326.081 329.109 337.015 312.487C344.284 302.226 346.286 272.657 333.954 259.565C333.67 259.264 333.378 258.971 333.079 258.688C328.69 254.53 323.219 253.583 313.396 252.712C300.704 251.586 280.748 250.585 246.474 242.941C233.207 240.08 204.834 233.817 197.486 231.652C195.267 231.537 192.937 231.399 190.488 231.226Z" fill="#F5F5F3"/>
<path d="M122.691 143.652C124.003 152.837 117.88 154.587 118.754 180.393C119.483 184.476 124.091 192.99 136.688 194.39C168.53 198.589 217.606 209.845 238.164 214.947C259.859 223.695 274.905 216.26 278.842 210.574C279.757 209.251 283.256 202.963 282.341 177.769C282.134 169.714 279.408 163.924 275.29 159.836C270.484 155.065 263.781 152.611 256.972 151.576C249.843 150.492 242.598 150.964 237.289 151.962C207.109 142.34 196.319 145.839 189.175 143.652C164.244 135.779 150.83 135.195 148.497 133.154C146.748 131.842 140.799 129.48 131.002 130.53C121.204 131.58 121.379 139.715 122.691 143.652Z" fill="#F5F5F3"/>
<path d="M154.621 56.6098C140.478 77.6048 112.019 126.243 111.319 152.837C111.34 153.427 111.365 154.01 111.392 154.587C113.2 143.039 121.719 134.029 125.753 130.967C134.151 122.569 179.115 137.528 238.164 141.465C282.295 144.407 268.661 137.966 270.094 129.655C271.843 119.507 279.91 100.349 281.903 87.2276C287.152 52.6732 293.276 53.548 300.274 16.3693C288.902 -9.43663 277.967 5.4347 253.473 8.49613C246.62 10.3917 223.03 13.4829 183.489 10.6836C164.244 9.32105 163.165 43.9257 154.621 56.6098Z" fill="#0F703A"/>
<path d="M14.2166 184.11C15.7289 182.683 18.2016 181.39 22.0898 180.393C32.1498 175.582 85.9449 194.39 120.811 191.328C116.223 184.548 112.275 173.102 111.392 154.587C111.365 154.01 111.34 153.427 111.319 152.837C112.019 126.243 140.478 77.6048 154.621 56.6098C130.564 63.6081 83.7627 59.6526 73.2652 60.109C57.1689 60.8088 48.4479 99.4747 41.7726 113.471C20.0777 158.961 7.7366 165.084 2.13457 207.512C3.78704 194.997 10.3872 186.953 14.2166 184.11Z" fill="#0F703A"/>
<path d="M251.723 221.508C245.745 219.759 225.654 214.51 193.112 207.512C191.173 207.095 189.278 206.7 187.426 206.325C184.51 210.05 177.453 222.843 172.554 244.217C172.35 245.404 172.134 246.577 171.922 247.735L171.919 247.753C178.409 234.106 186.127 230.986 189.175 231.132C189.617 231.164 190.054 231.196 190.488 231.226C192.937 231.399 195.267 231.537 197.486 231.652C215.905 232.606 226.729 231.964 235.539 235.943C246.387 240.842 302.461 238.957 316.458 244.217C335.003 251.186 329.482 217.135 337.453 199.202C343.052 186.605 357.136 140.59 358.448 116.096C351.887 91.602 332.642 104.724 310.927 109.973C300.366 143.915 298.642 166.724 293.276 186.079C283.478 221.421 267.032 225.989 251.723 221.508Z" fill="#0F703A"/>
<path d="M170.367 259.999C170.367 260.027 170.366 260.056 170.364 260.085C170.307 261.82 170.342 263.95 170.367 264.811C170.076 278.662 179.64 305.489 220.23 301.99C234.577 300.94 275.197 311.758 293.713 317.299C323.019 326.067 330.804 325.259 344.451 308.113C356.698 290.18 364.134 230.694 372.007 207.512C377.11 196.431 387.491 169.808 388.191 151.962C388.797 136.509 383.962 128.673 377.693 124.143C381.193 129.531 364.134 177.769 351.887 211.449C346.252 226.944 355.386 257.375 333.954 259.565C346.286 272.657 344.284 302.226 337.015 312.487C326.081 329.109 270.531 307.861 267.032 307.239C249.828 304.177 214.894 298.053 212.795 298.053C190.75 298.053 181.156 286.098 179.115 280.12C176.407 270.322 178.678 256.391 180.865 254.751C182.614 253.439 185.239 249.24 181.74 242.941C178.24 236.643 186.114 232.507 190.488 231.226C190.054 231.196 189.617 231.164 189.175 231.132C186.127 230.986 178.409 234.106 171.919 247.753C171.122 252.094 170.367 256.217 170.367 259.999Z" fill="#175128"/>
<path d="M333.079 258.688C333.378 258.971 333.67 259.264 333.954 259.565C355.386 257.375 346.252 226.944 351.887 211.449C364.134 177.769 381.193 129.531 377.693 124.143C374.669 121.958 371.312 120.542 368.071 119.412C361.51 125.282 348.825 162.46 348.825 185.205C348.825 196.14 331.329 210.574 338.328 242.941C339.057 246.539 335.091 253.53 313.396 252.712C323.219 253.583 328.69 254.53 333.079 258.688Z" fill="#11713B"/>
<path d="M358.448 116.096C357.136 140.59 343.052 186.605 337.453 199.202C329.482 217.135 335.003 251.186 316.458 244.217C302.461 238.957 246.387 240.842 235.539 235.943C226.729 231.964 215.905 232.606 197.486 231.652C204.834 233.817 233.207 240.08 246.474 242.941C280.748 250.585 300.704 251.586 313.396 252.712C335.091 253.53 339.057 246.539 338.328 242.941C331.329 210.574 348.825 196.14 348.825 185.205C348.825 162.46 361.51 125.282 368.071 119.412C364.529 118.177 361.125 117.282 358.448 116.096Z" fill="#144C24"/>
<path d="M193.112 207.512C225.654 214.51 245.745 219.759 251.723 221.508C267.032 225.989 283.478 221.421 293.276 186.079C298.642 166.724 300.366 143.915 310.927 109.973C314.924 97.1263 320.187 82.6851 327.393 66.2325C330.373 59.4273 330.451 38.0091 319.72 25.5551C316.732 34.6529 302.595 78.9175 295.9 99.9125C285.403 124.143 295.9 155.899 275.29 159.836C279.408 163.924 282.134 169.714 282.341 177.769C283.256 202.963 279.757 209.251 278.842 210.574C274.905 216.26 259.859 223.695 238.164 214.947C217.606 209.845 168.53 198.589 136.688 194.39C124.091 192.99 119.483 184.476 118.754 180.393C117.88 154.587 124.003 152.837 122.691 143.652C121.379 139.715 121.204 131.58 131.002 130.53C140.799 129.48 146.748 131.842 148.497 133.154C150.83 135.195 164.244 135.779 189.175 143.652C196.319 145.839 207.109 142.34 237.289 151.962C242.598 150.964 249.843 150.492 256.972 151.576C279.367 153.237 280.883 145.527 278.842 141.465C270.094 119.158 291.089 85.4784 291.089 79.3549C291.089 66.2325 300.274 25.5551 309.145 18.1193C306.513 17.1376 303.566 16.5242 300.274 16.3693C293.276 53.548 287.152 52.6732 281.903 87.2276C279.91 100.349 271.843 119.507 270.094 129.655C268.661 137.966 282.295 144.407 238.164 141.465C179.115 137.528 134.151 122.569 125.753 130.967C121.719 134.029 113.2 143.039 111.392 154.587C112.275 173.102 116.223 184.548 120.811 191.328C125.395 198.103 130.619 200.22 134.063 200.076C139.822 199.665 158.192 200.414 187.426 206.325C189.278 206.7 191.173 207.095 193.112 207.512Z" fill="#144C24"/>
<path d="M275.29 159.836C295.9 155.899 285.403 124.143 295.9 99.9125C302.595 78.9175 316.732 34.6529 319.72 25.5551C316.957 22.3477 313.477 19.7349 309.145 18.1193C300.274 25.5551 291.089 66.2325 291.089 79.3549C291.089 85.4784 270.094 119.158 278.842 141.465C280.883 145.527 279.367 153.237 256.972 151.576C263.781 152.611 270.484 155.065 275.29 159.836Z" fill="#11713B"/>
<path d="M22.0898 180.393C26.1721 179.518 35.6491 182.58 50.5206 186.079C58.5395 188.558 78.7764 193.952 95.5724 195.702C112.368 197.452 124.732 201.097 128.815 202.7C130.564 203.284 137.825 204.188 152.871 203.138C164.069 202.788 170.659 216.405 172.554 223.258C174.525 230.384 173.71 237.511 172.554 244.217C177.453 222.843 184.51 210.05 187.426 206.325C158.192 200.414 139.822 199.665 134.063 200.076C130.619 200.22 125.395 198.103 120.811 191.328C85.9449 194.39 32.1498 175.582 22.0898 180.393Z" fill="#144C24"/>
<path d="M61.8929 250.377C29.0881 245.565 4.15655 243.553 9.40532 218.009C10.1243 214.51 10.3675 205.412 14.2166 197.014C14.9905 195.326 9.09416 188.944 14.2166 184.11C10.3872 186.953 3.78704 194.997 2.13457 207.512C1.71083 210.721 1.61243 214.224 1.96951 218.009C3.7191 236.555 14.3624 244.69 19.4653 246.44C42.6474 254.388 50.5206 248.729 75.8895 256.063C92.948 260.994 117.442 264.811 143.686 270.934C147.914 271.663 159.17 271.459 170.367 264.811C170.342 263.95 170.307 261.82 170.364 260.085C170.095 264.11 151.141 276.083 117.442 262.186C103.154 258.541 72.0406 251.076 61.8929 250.377Z" fill="#144C24"/>
<path d="M9.40532 218.009C4.15655 243.553 29.0881 245.565 61.8929 250.377C72.0406 251.076 103.154 258.541 117.442 262.186C151.141 276.083 170.095 264.11 170.364 260.085L170.367 259.999C170.367 256.217 171.122 252.094 171.919 247.753L171.922 247.735C172.134 246.577 172.35 245.404 172.554 244.217C173.71 237.511 174.525 230.384 172.554 223.258C170.659 216.405 164.069 202.788 152.871 203.138C137.825 204.188 130.564 203.284 128.815 202.7C124.732 201.097 112.368 197.452 95.5724 195.702C78.7764 193.952 58.5395 188.558 50.5206 186.079C35.6491 182.58 26.1721 179.518 22.0898 180.393C18.2016 181.39 15.7289 182.683 14.2166 184.11C9.09416 188.944 14.9905 195.326 14.2166 197.014C10.3675 205.412 10.1243 214.51 9.40532 218.009Z" fill="#F5F5F3"/>
<path d="M190.488 231.226C186.114 232.507 178.24 236.643 181.74 242.941C185.239 249.24 182.614 253.439 180.865 254.751C178.678 256.391 176.407 270.322 179.115 280.12C181.156 286.098 190.75 298.053 212.795 298.053C214.894 298.053 249.828 304.177 267.032 307.239C270.531 307.861 326.081 329.109 337.015 312.487C344.284 302.226 346.286 272.657 333.954 259.565C333.67 259.264 333.378 258.971 333.079 258.688C328.69 254.53 323.219 253.583 313.396 252.712C300.704 251.586 280.748 250.585 246.474 242.941C233.207 240.08 204.834 233.817 197.486 231.652C195.267 231.537 192.937 231.399 190.488 231.226Z" fill="#F5F5F3"/>
<path d="M22.0898 180.393C26.1721 179.518 35.6491 182.58 50.5206 186.079C58.5395 188.558 78.7764 193.952 95.5724 195.702C112.368 197.452 124.732 201.097 128.815 202.7C130.564 203.284 137.825 204.188 152.871 203.138C164.069 202.788 170.659 216.405 172.554 223.258C174.525 230.384 173.711 237.511 172.554 244.217M22.0898 180.393C18.2016 181.39 15.7289 182.683 14.2166 184.11M22.0898 180.393C32.1498 175.582 85.9449 194.39 120.811 191.328M170.367 259.999C170.367 256.217 171.122 252.094 171.919 247.753M170.367 259.999C170.367 260.027 170.366 260.056 170.364 260.085M170.367 259.999C170.366 260.028 170.365 260.056 170.364 260.085M170.367 259.999L170.364 260.085M14.2166 184.11C9.09416 188.944 14.9905 195.326 14.2166 197.014C10.3675 205.412 10.1243 214.51 9.40532 218.009C4.15655 243.553 29.0881 245.565 61.8929 250.377C72.0406 251.076 103.154 258.541 117.442 262.186C151.141 276.083 170.095 264.11 170.364 260.085M14.2166 184.11C10.3872 186.953 3.78704 194.997 2.13457 207.512M170.367 264.811C159.17 271.459 147.914 271.663 143.686 270.934C117.442 264.811 92.948 260.994 75.8895 256.063C50.5206 248.729 42.6474 254.388 19.4653 246.44C14.3624 244.69 3.7191 236.555 1.96951 218.009C1.61243 214.224 1.71083 210.721 2.13457 207.512M170.367 264.811C170.076 278.662 179.64 305.489 220.231 301.99C234.577 300.94 275.197 311.758 293.713 317.299C323.019 326.067 330.804 325.259 344.451 308.113C356.698 290.18 364.134 230.694 372.007 207.512C377.11 196.431 387.491 169.808 388.191 151.962C388.797 136.509 383.962 128.673 377.693 124.143M170.367 264.811C170.342 263.95 170.307 261.82 170.364 260.085M2.13457 207.512C7.7366 165.084 20.0777 158.961 41.7726 113.471C48.4479 99.4747 57.1689 60.8088 73.2652 60.109C83.7627 59.6526 130.564 63.6081 154.621 56.6098M154.621 56.6098C140.478 77.6048 112.019 126.243 111.319 152.837C111.34 153.427 111.365 154.01 111.392 154.587M154.621 56.6098C163.165 43.9257 164.244 9.32105 183.489 10.6836C223.03 13.4829 246.62 10.3917 253.473 8.49613C277.967 5.4347 288.902 -9.43663 300.274 16.3693M300.274 16.3693C293.276 53.548 287.152 52.6732 281.903 87.2276C279.91 100.349 271.843 119.507 270.094 129.655C268.661 137.966 282.295 144.407 238.164 141.465C179.115 137.528 134.151 122.569 125.753 130.967C121.719 134.029 113.2 143.039 111.392 154.587M300.274 16.3693C303.566 16.5242 306.513 17.1376 309.145 18.1193M111.392 154.587C112.275 173.102 116.223 184.548 120.811 191.328M187.426 206.325C158.192 200.414 139.822 199.665 134.063 200.076C130.619 200.22 125.395 198.103 120.811 191.328M187.426 206.325C189.278 206.7 191.173 207.095 193.112 207.512C225.654 214.51 245.745 219.759 251.723 221.508C267.032 225.989 283.478 221.421 293.276 186.079C298.642 166.724 300.366 143.915 310.927 109.973M187.426 206.325C184.51 210.05 177.453 222.843 172.554 244.217M172.554 244.217C172.35 245.404 172.134 246.577 171.922 247.735M358.448 116.096C351.887 91.602 332.642 104.724 310.927 109.973M358.448 116.096C357.136 140.59 343.052 186.605 337.453 199.202C329.482 217.135 335.003 251.186 316.458 244.217C302.461 238.957 246.387 240.842 235.539 235.943C226.729 231.964 215.905 232.606 197.486 231.652M358.448 116.096C361.125 117.282 364.529 118.177 368.071 119.412M310.927 109.973C314.924 97.1263 320.187 82.6851 327.393 66.2325C330.373 59.4273 330.451 38.0091 319.72 25.5551M171.919 247.753C178.409 234.106 186.127 230.986 189.175 231.132C189.617 231.164 190.054 231.196 190.488 231.226M171.919 247.753L171.922 247.735M171.919 247.753C171.92 247.747 171.921 247.741 171.922 247.735M190.488 231.226C186.114 232.507 178.24 236.643 181.74 242.941C185.239 249.24 182.614 253.439 180.865 254.751C178.678 256.391 176.407 270.322 179.115 280.12C181.156 286.098 190.75 298.053 212.795 298.053C214.894 298.053 249.828 304.177 267.032 307.239C270.531 307.861 326.081 329.109 337.015 312.487C344.284 302.226 346.286 272.657 333.954 259.565M190.488 231.226C192.937 231.399 195.267 231.537 197.486 231.652M197.486 231.652C204.834 233.817 233.207 240.08 246.474 242.941C280.748 250.585 300.704 251.586 313.396 252.712M333.954 259.565C333.67 259.264 333.378 258.971 333.079 258.688C328.69 254.53 323.219 253.583 313.396 252.712M333.954 259.565C355.386 257.375 346.252 226.944 351.887 211.449C364.134 177.769 381.193 129.531 377.693 124.143M377.693 124.143C374.669 121.958 371.312 120.542 368.071 119.412M275.29 159.836C279.408 163.924 282.134 169.714 282.341 177.769C283.256 202.963 279.757 209.251 278.842 210.574C274.905 216.26 259.859 223.695 238.164 214.948C217.606 209.845 168.53 198.589 136.688 194.39C124.091 192.99 119.483 184.476 118.754 180.393C117.88 154.587 124.003 152.837 122.691 143.652C121.379 139.715 121.204 131.58 131.002 130.53C140.799 129.48 146.748 131.842 148.497 133.154C150.83 135.195 164.244 135.779 189.175 143.652C196.319 145.839 207.109 142.34 237.289 151.962C242.598 150.964 249.843 150.492 256.972 151.576M275.29 159.836C295.9 155.899 285.403 124.143 295.9 99.9125C302.595 78.9175 316.732 34.6529 319.72 25.5551M275.29 159.836C270.484 155.065 263.781 152.611 256.972 151.576M319.72 25.5551C316.957 22.3477 313.477 19.7349 309.145 18.1193M309.145 18.1193C300.274 25.5551 291.089 66.2325 291.089 79.3549C291.089 85.4784 270.094 119.158 278.842 141.465C280.883 145.527 279.367 153.237 256.972 151.576M368.071 119.412C361.51 125.282 348.825 162.46 348.825 185.205C348.825 196.14 331.329 210.574 338.328 242.941C339.057 246.539 335.091 253.53 313.396 252.712" stroke="black" stroke-width="1.84043"/>
<path d="M34.4387 199.415C30.8815 198.117 24.6026 201.038 21.9077 202.661C16.6528 201.038 23.9288 190.895 31.6091 191.3C39.2894 191.706 38.8852 201.038 34.4387 199.415Z" fill="#FFC03A"/>
<path d="M40.7957 230.908C44.3528 229.609 50.6318 232.531 53.3267 234.154C58.5816 232.531 51.3055 222.387 43.6252 222.793C35.945 223.199 36.3492 232.531 40.7957 230.908Z" fill="#FFC03A"/>
<path d="M147.495 152.177C143.938 150.878 137.659 153.799 134.964 155.422C129.709 153.799 136.985 143.656 144.665 144.062C152.346 144.468 151.941 153.799 147.495 152.177Z" fill="#FFC03A"/>
<path d="M205.23 253.652C201.673 252.354 195.394 255.275 192.699 256.898C187.444 255.275 194.72 245.132 202.401 245.538C210.081 245.943 209.677 255.275 205.23 253.652Z" fill="#FFC03A"/>
<path d="M173.738 167.048C170.181 165.75 163.902 168.671 161.207 170.294C155.952 168.671 163.228 158.527 170.908 158.933C178.589 159.339 178.185 168.671 173.738 167.048Z" fill="#FFC03A"/>
<path d="M231.475 268.524C227.918 267.226 221.639 270.147 218.944 271.77C213.689 270.147 220.965 260.004 228.645 260.409C236.326 260.815 235.921 270.147 231.475 268.524Z" fill="#FFC03A"/>
<path d="M153.352 182.207C151.348 178.993 144.601 177.43 141.479 177.049C138.337 172.535 150.315 169.022 156.118 174.07C161.92 179.118 155.856 186.223 153.352 182.207Z" fill="#FFC03A"/>
<path d="M211.087 283.682C209.084 280.469 202.337 278.906 199.215 278.525C196.073 274.011 208.051 270.498 213.854 275.546C219.656 280.594 213.592 287.699 211.087 283.682Z" fill="#FFC03A"/>
<path d="M194.956 158.459C192.145 155.922 185.229 156.279 182.122 156.774C177.858 153.301 188.404 146.622 195.373 149.875C202.342 153.128 198.471 161.629 194.956 158.459Z" fill="#FFC03A"/>
<path d="M252.691 259.935C249.88 257.399 242.963 257.755 239.857 258.25C235.593 254.777 246.139 248.098 253.108 251.351C260.077 254.605 256.206 263.106 252.691 259.935Z" fill="#FFC03A"/>
<path d="M222.728 160.049C219.171 158.751 212.892 161.672 210.197 163.295C204.942 161.672 212.218 151.529 219.898 151.935C227.578 152.34 227.174 161.672 222.728 160.049Z" fill="#FFC03A"/>
<path d="M280.463 261.525C276.906 260.227 270.627 263.148 267.932 264.771C262.677 263.148 269.953 253.005 277.634 253.411C285.314 253.816 284.91 263.148 280.463 261.525Z" fill="#FFC03A"/>
<path d="M252.47 181.919C248.913 180.621 242.634 183.542 239.939 185.165C234.684 183.542 241.96 173.399 249.64 173.805C257.321 174.211 256.916 183.542 252.47 181.919Z" fill="#FFC03A"/>
<path d="M310.206 283.395C306.649 282.097 300.37 285.018 297.675 286.641C292.42 285.018 299.696 274.875 307.376 275.28C315.057 275.686 314.652 285.018 310.206 283.395Z" fill="#FFC03A"/>
<path d="M264.816 168.87C262.593 165.805 255.754 164.715 252.613 164.554C249.164 160.27 260.868 155.929 267.008 160.561C273.149 165.192 267.595 172.702 264.816 168.87Z" fill="#FFC03A"/>
<path d="M322.553 270.346C320.33 267.281 313.491 266.192 310.349 266.03C306.9 261.746 318.605 257.406 324.745 262.037C330.885 266.668 325.332 274.178 322.553 270.346Z" fill="#FFC03A"/>
<path d="M226.893 202.04C223.336 200.741 217.057 203.662 214.362 205.285C209.107 203.663 216.383 193.519 224.063 193.925C231.744 194.331 231.339 203.662 226.893 202.04Z" fill="#FFC03A"/>
<path d="M284.629 303.515C281.072 302.217 274.793 305.138 272.098 306.761C266.843 305.138 274.119 294.995 281.8 295.401C289.48 295.806 289.076 305.138 284.629 303.515Z" fill="#FFC03A"/>
<path d="M272.382 209.913C268.825 208.614 262.546 211.536 259.851 213.158C254.596 211.536 261.872 201.392 269.552 201.798C277.233 202.204 276.829 211.536 272.382 209.913Z" fill="#FFC03A"/>
<path d="M330.119 311.389C326.562 310.091 320.283 313.012 317.588 314.635C312.333 313.012 319.609 302.869 327.289 303.274C334.97 303.68 334.565 313.012 330.119 311.389Z" fill="#FFC03A"/>
<path d="M73.8069 215.161C77.3641 213.863 83.6431 216.784 86.3379 218.407C91.5928 216.784 84.3168 206.641 76.6365 207.047C68.9562 207.452 69.3604 216.784 73.8069 215.161Z" fill="#FFC03A"/>
<path d="M114.048 225.659C117.605 224.361 123.884 227.282 126.579 228.905C131.834 227.282 124.557 217.139 116.877 217.544C109.197 217.95 109.601 227.282 114.048 225.659Z" fill="#FFC03A"/>
<path d="M143.79 229.158C147.347 227.86 153.626 230.781 156.321 232.404C161.576 230.781 154.3 220.638 146.62 221.044C138.94 221.45 139.344 230.781 143.79 229.158Z" fill="#FFC03A"/>
<path d="M103.547 250.153C99.9899 248.855 93.711 251.776 91.0161 253.399C85.7612 251.776 93.0372 241.633 100.718 242.038C108.398 242.444 107.994 251.776 103.547 250.153Z" fill="#FFC03A"/>
<path d="M31.0937 211.786C33.5838 210.887 37.979 212.91 39.8654 214.033C43.5439 212.91 38.4506 205.887 33.0744 206.168C27.6982 206.449 27.9812 212.91 31.0937 211.786Z" fill="#FFC03A"/>
<path d="M144.15 164.547C146.64 163.649 151.035 165.671 152.922 166.795C156.6 165.671 151.507 158.649 146.131 158.93C140.754 159.21 141.037 165.671 144.15 164.547Z" fill="#FFC03A"/>
<path d="M201.887 266.023C204.377 265.125 208.772 267.147 210.658 268.271C214.337 267.147 209.244 260.125 203.867 260.406C198.491 260.687 198.774 267.147 201.887 266.023Z" fill="#FFC03A"/>
<path d="M170.395 179.419C172.885 178.52 177.28 180.543 179.166 181.666C182.845 180.543 177.751 173.52 172.375 173.801C166.999 174.082 167.282 180.543 170.395 179.419Z" fill="#FFC03A"/>
<path d="M228.131 280.895C230.621 279.996 235.016 282.018 236.903 283.142C240.581 282.018 235.488 274.996 230.112 275.277C224.735 275.558 225.018 282.018 228.131 280.895Z" fill="#FFC03A"/>
<path d="M219.382 172.42C221.872 171.522 226.268 173.544 228.154 174.668C231.832 173.544 226.739 166.522 221.363 166.803C215.987 167.084 216.27 173.544 219.382 172.42Z" fill="#FFC03A"/>
<path d="M277.119 273.897C279.609 272.998 284.004 275.02 285.891 276.144C289.569 275.02 284.476 267.998 279.1 268.279C273.724 268.56 274.007 275.02 277.119 273.897Z" fill="#FFC03A"/>
<path d="M249.126 194.291C251.616 193.392 256.011 195.414 257.898 196.538C261.576 195.414 256.483 188.392 251.107 188.673C245.73 188.954 246.013 195.414 249.126 194.291Z" fill="#FFC03A"/>
<path d="M306.862 295.766C309.352 294.867 313.748 296.89 315.634 298.013C319.312 296.89 314.219 289.867 308.843 290.148C303.467 290.429 303.75 296.89 306.862 295.766Z" fill="#FFC03A"/>
<path d="M77.1509 227.533C74.6609 226.634 70.2656 228.656 68.3792 229.78C64.7007 228.656 69.794 221.634 75.1702 221.915C80.5464 222.196 80.2634 228.656 77.1509 227.533Z" fill="#FFC03A"/>
<path d="M68.6333 239.9C66.1433 240.799 61.748 238.776 59.8616 237.653C56.1832 238.776 61.2764 245.799 66.6526 245.518C72.0288 245.237 71.7459 238.776 68.6333 239.9Z" fill="#FFC03A"/>
<path d="M117.391 238.03C114.901 237.131 110.506 239.153 108.619 240.277C104.941 239.153 110.034 232.131 115.41 232.412C120.787 232.693 120.504 239.153 117.391 238.03Z" fill="#FFC03A"/>
<path d="M147.134 241.529C144.644 240.63 140.249 242.652 138.363 243.776C134.684 242.652 139.777 235.63 145.154 235.911C150.53 236.192 150.247 242.652 147.134 241.529Z" fill="#FFC03A"/>
<path d="M111.499 212.661C109.009 211.762 104.614 213.784 102.727 214.908C99.0489 213.785 104.142 206.762 109.518 207.043C114.895 207.324 114.612 213.784 111.499 212.661Z" fill="#FFC03A"/>
<path d="M141.242 216.16C138.752 215.261 134.357 217.284 132.471 218.407C128.792 217.284 133.885 210.261 139.262 210.542C144.638 210.823 144.355 217.284 141.242 216.16Z" fill="#FFC03A"/>
<path d="M73.8823 203.038C71.3923 202.14 66.997 204.162 65.1106 205.285C61.4322 204.162 66.5254 197.14 71.9016 197.421C77.2778 197.701 76.9949 204.162 73.8823 203.038Z" fill="#FFC03A"/>
<path d="M141.242 256.4C138.752 255.502 134.357 257.524 132.471 258.648C128.792 257.524 133.885 250.502 139.262 250.783C144.638 251.064 144.355 257.524 141.242 256.4Z" fill="#FFC03A"/>
<path d="M28.7428 221.555C26.1046 221.336 22.9498 217.668 21.7022 215.861C17.8898 215.352 19.5984 223.857 24.6037 225.839C29.6091 227.821 32.0406 221.829 28.7428 221.555Z" fill="#FFC03A"/>
<path d="M135.676 180.882C133.038 180.663 129.883 176.995 128.636 175.188C124.823 174.679 126.532 183.184 131.537 185.166C136.543 187.148 138.974 181.156 135.676 180.882Z" fill="#FFC03A"/>
<path d="M193.412 282.358C190.774 282.139 187.619 278.471 186.371 276.664C182.559 276.155 184.267 284.66 189.273 286.642C194.278 288.624 196.71 282.632 193.412 282.358Z" fill="#FFC03A"/>
<path d="M132.177 159.887C129.539 159.668 126.384 156 125.136 154.193C121.324 153.684 123.032 162.189 128.038 164.171C133.043 166.153 135.475 160.161 132.177 159.887Z" fill="#FFC03A"/>
<path d="M189.913 261.363C187.275 261.144 184.12 257.476 182.873 255.669C179.06 255.16 180.769 263.665 185.774 265.647C190.78 267.629 193.211 261.637 189.913 261.363Z" fill="#FFC03A"/>
<path d="M174.167 190.505C171.528 190.286 168.374 186.618 167.126 184.811C163.314 184.302 165.022 192.807 170.028 194.789C175.033 196.771 177.464 190.779 174.167 190.505Z" fill="#FFC03A"/>
<path d="M231.903 291.981C229.264 291.762 226.109 288.094 224.862 286.287C221.049 285.778 222.758 294.283 227.763 296.265C232.769 298.247 235.2 292.255 231.903 291.981Z" fill="#FFC03A"/>
<path d="M217.032 182.189C214.394 181.97 211.239 178.302 209.991 176.495C206.179 175.986 207.887 184.491 212.893 186.473C217.898 188.455 220.33 182.463 217.032 182.189Z" fill="#FFC03A"/>
<path d="M274.769 283.666C272.131 283.447 268.976 279.779 267.728 277.972C263.916 277.463 265.624 285.967 270.63 287.95C275.635 289.932 278.066 283.94 274.769 283.666Z" fill="#FFC03A"/>
<path d="M246.775 204.059C244.137 203.84 240.982 200.172 239.734 198.365C235.922 197.856 237.631 206.361 242.636 208.343C247.641 210.325 250.073 204.333 246.775 204.059Z" fill="#FFC03A"/>
<path d="M304.511 305.535C301.873 305.316 298.718 301.648 297.47 299.841C293.658 299.332 295.366 307.837 300.372 309.819C305.377 311.801 307.809 305.809 304.511 305.535Z" fill="#FFC03A"/>
<path d="M79.5028 237.302C82.141 237.083 85.2958 233.414 86.5434 231.608C90.3558 231.098 88.6472 239.603 83.6419 241.585C78.6365 243.567 76.205 237.575 79.5028 237.302Z" fill="#FFC03A"/>
<path d="M119.743 247.799C122.382 247.58 125.537 243.912 126.784 242.105C130.597 241.596 128.888 250.101 123.883 252.083C118.877 254.065 116.446 248.073 119.743 247.799Z" fill="#FFC03A"/>
<path d="M149.485 251.299C152.123 251.08 155.278 247.411 156.526 245.605C160.338 245.095 158.63 253.6 153.624 255.582C148.619 257.565 146.187 251.572 149.485 251.299Z" fill="#FFC03A"/>
<path d="M51.7106 195.302C50.8745 197.814 46.5648 200.013 44.5145 200.798C43.1189 204.382 51.7868 204.731 54.8953 200.336C58.0038 195.941 52.7558 192.162 51.7106 195.302Z" fill="#FFC03A"/>
<path d="M38.01 239.047C35.4633 238.324 31.2199 240.648 29.4166 241.901C25.6686 241.037 30.2592 233.676 35.6419 233.581C41.0246 233.486 41.1934 239.95 38.01 239.047Z" fill="#FFC03A"/>
<path d="M164.767 148.063C163.931 150.575 159.621 152.774 157.571 153.559C156.176 157.143 164.843 157.492 167.952 153.097C171.06 148.702 165.812 144.923 164.767 148.063Z" fill="#FFC03A"/>
<path d="M222.504 249.539C221.668 252.051 217.358 254.25 215.308 255.035C213.912 258.619 222.58 258.968 225.689 254.573C228.797 250.177 223.549 246.399 222.504 249.539Z" fill="#FFC03A"/>
<path d="M191.011 162.935C190.175 165.446 185.865 167.645 183.815 168.431C182.419 172.015 191.087 172.364 194.196 167.969C197.304 163.573 192.056 159.795 191.011 162.935Z" fill="#FFC03A"/>
<path d="M248.748 264.411C247.912 266.923 243.602 269.121 241.552 269.907C240.157 273.491 248.824 273.84 251.933 269.445C255.041 265.049 249.793 261.271 248.748 264.411Z" fill="#FFC03A"/>
<path d="M192.553 178.681C191.717 181.193 187.407 183.392 185.357 184.177C183.961 187.761 192.629 188.11 195.738 183.715C198.846 179.32 193.598 175.541 192.553 178.681Z" fill="#FFC03A"/>
<path d="M250.289 280.157C249.453 282.669 245.143 284.868 243.093 285.653C241.698 289.237 250.365 289.586 253.474 285.191C256.582 280.796 251.334 277.017 250.289 280.157Z" fill="#FFC03A"/>
<path d="M200.425 191.803C199.589 194.315 195.28 196.514 193.229 197.299C191.834 200.883 200.502 201.232 203.61 196.837C206.719 192.441 201.471 188.663 200.425 191.803Z" fill="#FFC03A"/>
<path d="M258.162 293.279C257.326 295.791 253.016 297.99 250.966 298.775C249.57 302.359 258.238 302.709 261.346 298.313C264.455 293.918 259.207 290.139 258.162 293.279Z" fill="#FFC03A"/>
<path d="M240 155.936C239.164 158.448 234.854 160.647 232.804 161.432C231.408 165.016 240.076 165.366 243.184 160.97C246.293 156.575 241.045 152.796 240 155.936Z" fill="#FFC03A"/>
<path d="M297.736 257.412C296.9 259.924 292.59 262.123 290.54 262.908C289.144 266.492 297.812 266.842 300.921 262.446C304.029 258.051 298.781 254.272 297.736 257.412Z" fill="#FFC03A"/>
<path d="M269.742 177.806C268.906 180.318 264.597 182.517 262.546 183.302C261.151 186.886 269.819 187.235 272.927 182.84C276.036 178.445 270.787 174.666 269.742 177.806Z" fill="#FFC03A"/>
<path d="M327.479 279.282C326.643 281.794 322.333 283.993 320.283 284.778C318.887 288.363 327.555 288.712 330.664 284.316C333.772 279.921 328.524 276.143 327.479 279.282Z" fill="#FFC03A"/>
<path d="M56.5345 211.048C57.3706 213.56 61.6803 215.759 63.7306 216.544C65.1262 220.128 56.4583 220.478 53.3498 216.082C50.2413 211.687 55.4894 207.908 56.5345 211.048Z" fill="#FFC03A"/>
<path d="M96.7747 221.546C97.6108 224.058 101.921 226.256 103.971 227.042C105.366 230.626 96.6986 230.975 93.59 226.58C90.4815 222.184 95.7296 218.406 96.7747 221.546Z" fill="#FFC03A"/>
</svg>
