<svg width="322" height="125" viewBox="0 0 322 125" fill="none" xmlns="http://www.w3.org/2000/svg">
<path d="M37.7982 23.6078C48.9269 54.5668 298.917 50.4548 293.018 23.6078C291.61 17.1996 280.546 12.2235 263.747 8.59177C217.961 -1.30668 129.571 -1.21953 77.9566 7.07166C54.1478 10.8963 38.1644 16.4666 37.7982 23.6078Z" fill="#363942"/>
<path d="M293.018 23.6078C298.917 50.4548 48.9269 54.5668 37.7982 23.6078C38.1644 16.4666 54.1478 10.8963 77.9566 7.07166C46.35 11.107 32.3772 18.1134 32.198 23.3639C32.2033 23.5093 32.2092 23.6553 32.2155 23.8018C32.3065 24.593 32.7208 25.3397 33.4444 26.0246C38.4632 30.7745 47.8867 34.7966 60.2969 38.0791C108.219 50.7546 200.677 52.4031 256.006 42.3605C276.823 38.582 292.385 33.1485 298.341 26.0246C300.357 22.6267 296.26 14.3832 263.747 8.59177C280.546 12.2235 291.61 17.1996 293.018 23.6078Z" fill="#6C7184"/>
<path d="M256.006 42.3605C200.677 52.4031 108.219 50.7546 60.2969 38.0791C70.1263 62.7644 113.181 109.184 206.763 97.3802C227.06 84.7471 242.793 66.6337 256.006 42.3605Z" fill="#4E525E"/>
<path d="M60.2969 38.0791C47.8867 34.7966 38.4632 30.7745 33.4444 26.0246C32.7208 25.3397 32.3065 24.593 32.2155 23.8018C32.3787 27.5942 32.8758 31.7645 33.7616 36.1837L50.3784 42.9564C68.3113 82.8215 85.696 98.7254 149.419 117.347C172.019 113.86 190.802 107.315 206.763 97.3802C113.181 109.184 70.1263 62.7644 60.2969 38.0791Z" fill="#484A56"/>
<path d="M121.743 120.025C132.733 122.442 144.952 123.852 158.514 123.987C163.352 124.036 168.027 123.944 172.545 123.719C164.216 121.536 156.529 119.425 149.419 117.347C85.696 98.7254 68.3113 82.8215 50.3784 42.9564L33.7616 36.1837C33.9589 37.168 34.1755 38.1647 34.412 39.1723C34.5199 39.6319 34.6271 40.0868 34.7341 40.5376C35.028 41.7748 35.3206 42.9807 35.6226 44.1658C35.8868 45.203 36.1582 46.2243 36.4439 47.237C37.6917 51.6611 39.2107 55.9202 41.5895 60.6139C51.9442 59.5354 55.6538 58.0708 58.3621 60.8549C58.6909 61.193 59.0097 61.5936 59.3297 62.0652C60.1068 63.2103 60.4229 64.1661 60.3856 64.9678C60.2022 68.9084 51.4814 69.127 46.9921 69.7937C61.8017 92.4813 81.681 110.332 121.743 120.025Z" fill="#5C5F70"/>
<path d="M284.24 61.8233C283.432 61.732 282.726 61.377 282.163 60.8558C281.64 61.4768 281.053 62.2933 280.384 63.2746C271.679 76.0556 249.207 116.8 176.416 117.698C194.648 111.68 210.206 103.9 222.863 95.2666C218.025 95.8977 210.114 96.9387 206.763 97.3802C190.802 107.315 172.019 113.86 149.419 117.347C156.529 119.425 164.216 121.536 172.545 123.719C234.424 120.642 266.902 92.7485 284.24 61.8233Z" fill="#5A5C6B"/>
<path d="M222.863 95.2666C210.206 103.9 194.648 111.68 176.416 117.698C249.207 116.8 271.679 76.0556 280.384 63.2746C263.31 78.5617 227.702 94.6354 222.863 95.2666Z" fill="#6C6F80"/>
<path d="M282.163 60.8558C279.77 58.6421 279.949 53.43 285.791 52.683C290.236 47.1026 295.734 36.9093 282.163 40.7795C274.327 43.0141 269.077 44.4423 265.807 45.2969C263.253 45.9645 261.29 48.0545 260.534 50.5842C256.176 65.1584 243.301 81.3258 222.863 95.2666C227.702 94.6354 263.31 78.5617 280.384 63.2746C281.053 62.2933 281.64 61.4768 282.163 60.8558Z" fill="#6E7386"/>
<path d="M297.011 30.8622C297.483 29.2367 297.926 27.6231 298.341 26.0246C292.385 33.1485 276.823 38.582 256.006 42.3605C242.793 66.6337 227.06 84.7471 206.763 97.3802C210.114 96.9387 218.025 95.8977 222.863 95.2666C243.301 81.3258 256.176 65.1584 260.534 50.5842C261.29 48.0545 263.253 45.9645 265.807 45.2969C269.077 44.4423 274.327 43.0141 282.163 40.7795C295.734 36.9093 290.236 47.1026 285.791 52.683C286.691 52.5679 287.726 52.5588 288.906 52.683C291.008 48.1476 292.822 43.5933 294.391 39.0863C295.239 36.6501 296.016 34.2278 296.727 31.8298C296.823 31.5068 296.918 31.1843 297.011 30.8622Z" fill="#616473"/>
<path d="M294.391 39.0863C332.209 43.924 296.163 53.4467 288.906 52.683C287.726 52.5588 286.691 52.5679 285.791 52.683C279.949 53.43 279.77 58.6421 282.163 60.8558C282.726 61.377 283.432 61.732 284.24 61.8233C290.566 62.5385 303.282 62.2891 312.13 57.1948C329.161 40.9141 308.958 33.5011 296.727 31.8298C296.016 34.2278 295.239 36.6501 294.391 39.0863Z" fill="#4E525E"/>
<path d="M317.694 52.6318C328.532 36.9577 308.421 31.5879 297.011 30.8622C296.918 31.1843 296.823 31.5068 296.727 31.8298C308.958 33.5011 329.161 40.9141 312.13 57.1948C314.255 55.9712 316.157 54.4681 317.694 52.6318Z" fill="#868895"/>
<path d="M45.2987 67.1448C16.6881 70.3956 -2.20048 57.6999 4.48809 48.3133C-10.2082 66.9106 24.9147 73.3657 46.9921 69.7937C51.4814 69.127 60.2022 68.9084 60.3856 64.9678C56.005 65.7419 48.5024 66.7416 45.2987 67.1448Z" fill="#363942"/>
<path d="M34.7341 40.5376C28.5791 40.8112 14.0917 42.5342 5.3828 47.237C5.06619 47.6002 4.7681 47.9589 4.48809 48.3133C-2.20048 57.6999 16.6881 70.3956 45.2987 67.1448C48.5024 66.7416 56.005 65.7419 60.3856 64.9678C60.4229 64.1661 60.1068 63.2103 59.3297 62.0652C59.0097 61.5936 58.6909 61.193 58.3621 60.8549C38.2348 66.466 9.49536 63.5165 10.322 55.7763C9.57457 52.1398 18.5645 47.3561 35.6226 44.1658C35.3206 42.9807 35.028 41.7748 34.7341 40.5376Z" fill="#4E525E"/>
<path d="M34.412 39.1723C18.4876 39.8768 9.29076 43.1474 5.3828 47.237C14.0917 42.5342 28.5791 40.8112 34.7341 40.5376C34.6271 40.0868 34.5199 39.6319 34.412 39.1723Z" fill="#8C929E"/>
<path d="M36.4439 47.237C36.1582 46.2243 35.8868 45.203 35.6226 44.1658C18.5645 47.3561 9.57457 52.1398 10.322 55.7763C16.2087 49.7775 30.1894 47.584 36.4439 47.237Z" fill="#363942"/>
<path d="M41.5895 60.6139C20.9606 61.7581 11.048 59.3083 10.322 55.7763C9.49536 63.5165 38.2348 66.466 58.3621 60.8549C55.6538 58.0708 51.9442 59.5354 41.5895 60.6139Z" fill="#8C929E"/>
<path d="M298.341 26.0246C300.357 22.6267 296.26 14.3832 263.747 8.59177C217.961 -1.30668 129.571 -1.21953 77.9566 7.07166C46.35 11.1071 32.3772 18.1134 32.198 23.3639M298.341 26.0246C297.926 27.6231 297.483 29.2367 297.011 30.8622M298.341 26.0246C292.385 33.1485 276.823 38.582 256.006 42.3605C200.677 52.4031 108.219 50.7546 60.2969 38.0791C47.8867 34.7966 38.4632 30.7745 33.4444 26.0246C32.7208 25.3397 32.3065 24.593 32.2155 23.8018M32.198 23.3639C32.2034 23.5093 32.2092 23.6553 32.2155 23.8018M32.198 23.3639C32.193 23.5113 32.1988 23.6573 32.2155 23.8018M297.011 30.8622C308.421 31.5879 328.532 36.9577 317.694 52.6318C316.157 54.4681 314.255 55.9712 312.13 57.1948C303.282 62.2891 290.566 62.5385 284.24 61.8233M297.011 30.8622C296.918 31.1843 296.823 31.5068 296.727 31.8298C296.016 34.2278 295.239 36.6501 294.391 39.0863M284.24 61.8233C283.432 61.732 282.726 61.377 282.163 60.8558C279.77 58.6421 279.949 53.43 285.791 52.683C286.691 52.5679 287.726 52.5588 288.906 52.683M284.24 61.8233C266.902 92.7485 234.424 120.642 172.545 123.719C168.027 123.944 163.352 124.036 158.514 123.987C144.952 123.852 132.733 122.442 121.743 120.025C81.681 110.332 61.8017 92.4813 46.9921 69.7937M288.906 52.683C291.008 48.1476 292.822 43.5933 294.391 39.0863M288.906 52.683C296.163 53.4467 332.209 43.924 294.391 39.0863M34.412 39.1724C34.1755 38.1647 33.9589 37.168 33.7616 36.1837C32.8758 31.7645 32.3787 27.5942 32.2155 23.8018M34.412 39.1724C18.4876 39.8768 9.29076 43.1474 5.3828 47.237M34.412 39.1724C34.5199 39.6319 34.6271 40.0869 34.7341 40.5376C35.028 41.7748 35.6559 44.1596 35.9579 45.3447M5.3828 47.237C5.06619 47.6002 4.7681 47.9589 4.48809 48.3133M5.3828 47.237C5.04547 47.59 4.74754 47.9492 4.48809 48.3133M46.9921 69.7937C51.4814 69.127 60.2022 68.9084 60.3856 64.9678C60.4229 64.1661 60.1068 63.2103 59.3297 62.0652C59.0097 61.5936 58.6909 61.193 58.3621 60.855C55.6538 58.0708 51.9442 59.5355 41.5895 60.6139M46.9921 69.7937C24.9147 73.3657 -10.2082 66.9106 4.48809 48.3133M35.9579 45.3447C36.2222 46.3819 36.1582 46.2243 36.4439 47.237C37.6917 51.6611 39.2107 55.9202 41.5895 60.6139M35.9579 45.3447C18.8999 48.535 9.57457 52.1398 10.322 55.7763C11.048 59.3084 20.9606 61.7581 41.5895 60.6139" stroke="black" stroke-width="1.94211"/>
</svg>
